<svg version="1.0" xmlns="http://www.w3.org/2000/svg" width="576.000000pt" height="1024.000000pt" viewBox="0 0 576.000000 1024.000000" preserveAspectRatio="xMidYMid meet">
<rect width="100%" height="100%" fill="#fff" />
<metadata>
Created by potrace 1.16, written by Peter Selinger 2001-2019
</metadata>
<g transform="translate(0.000000,1024.000000) scale(0.100000,-0.100000)" fill="#000000" stroke="none">
<path d="M713 8838 c-13 -16 -132 -638 -126 -655 l5 -13 33 0 c19 0 36 4 39 8
2 4 23 107 46 227 22 121 44 228 48 238 l7 18 79 -233 c44 -128 84 -239 89
-245 5 -7 22 -13 37 -13 15 0 32 6 37 13 5 6 45 117 88 244 44 128 82 229 86
225 3 -4 23 -99 43 -212 21 -113 42 -220 48 -237 l10 -33 34 0 35 0 5 13 c6
18 -114 637 -127 654 -6 7 -24 13 -40 13 l-29 0 -14 -22 c-7 -13 -48 -128 -91
-255 -42 -128 -80 -233 -83 -233 -4 0 -45 114 -92 253 l-85 252 -36 3 -36 3
-10 -13z" stroke="#000000" stroke-width="31"></path>
<path d="M1667 8844 c-4 -4 -7 -109 -7 -233 l0 -226 -24 -52 c-27 -57 -62 -86
-98 -81 l-23 3 -3 149 -3 150 -11 13 c-13 16 -50 17 -66 1 l-12 -12 0 -148 0
-149 15 -35 14 -35 36 -15 36 -15 39 11 c21 6 52 22 69 36 l30 25 3 -28 3 -28
40 0 40 0 5 67 5 66 45 -53 45 -54 43 -22 43 -21 43 12 c24 6 56 20 71 30 l27
18 36 -24 35 -24 56 0 56 0 40 23 c22 12 46 35 55 50 l15 27 -11 17 c-18 29
-41 27 -81 -6 l-38 -31 -25 0 c-14 0 -32 5 -40 10 l-15 10 58 51 c60 54 80 83
91 136 l7 32 -16 34 c-28 59 -105 75 -175 36 l-38 -21 -23 -42 -24 -41 0 -86
0 -87 -28 -16 c-16 -9 -41 -16 -56 -16 l-27 0 -40 43 c-23 23 -50 55 -62 71
l-22 28 85 65 c47 36 85 71 85 77 0 19 -37 49 -52 43 -7 -3 -47 -31 -88 -62
l-75 -56 -5 193 -5 193 -35 3 c-20 2 -39 0 -43 -4z m541 -353 l13 -8 -6 -26
c-7 -27 -71 -107 -86 -107 -14 0 -10 68 6 100 13 25 39 49 55 50 3 0 11 -4 18
-9z" stroke="#000000" stroke-width="31"></path>
<path d="M2811 8828 c-60 -30 -109 -81 -139 -147 l-26 -56 -1 -115 0 -115 29
-62 29 -63 42 -39 c50 -46 101 -65 176 -65 l56 1 47 22 46 23 35 42 c37 46 42
65 23 84 -20 20 -38 14 -80 -24 -22 -20 -56 -43 -76 -51 l-36 -15 -40 6 c-22
4 -55 16 -73 27 l-32 20 -28 57 -28 57 0 90 0 90 26 56 26 56 34 24 33 23 61
4 62 4 39 -21 c21 -12 47 -27 56 -33 l17 -12 20 18 c12 11 21 23 21 27 0 18
-58 73 -95 90 l-40 19 -70 0 -70 0 -44 -22z" stroke="#000000" stroke-width="31"></path>
<path d="M3657 8843 c-4 -3 -7 -59 -7 -124 0 -64 -3 -125 -6 -134 -18 -45
-111 -58 -194 -25 -108 43 -192 14 -242 -83 l-19 -39 0 -64 0 -65 22 -45 21
-45 40 -27 40 -26 53 0 53 0 40 26 40 27 22 46 22 46 -4 74 -3 75 23 0 c12 0
38 7 57 14 l35 15 0 -125 0 -125 15 -28 14 -29 33 -11 32 -11 32 6 c18 3 51
22 73 41 l41 35 0 -14 c0 -20 40 -54 71 -61 35 -9 92 9 128 38 35 30 37 30 44
5 l5 -20 38 -16 37 -16 43 12 c23 7 53 23 66 37 l23 25 5 -29 5 -28 28 -3 c16
-2 35 2 43 9 l14 11 0 108 0 107 23 34 c12 19 35 40 50 47 l27 13 21 -6 c30
-10 39 -45 39 -156 l0 -100 15 -29 15 -28 35 -12 35 -12 35 12 35 11 34 41
c19 22 44 64 56 94 12 30 25 54 29 53 3 0 35 -13 71 -27 l65 -27 3 -25 4 -24
-18 -13 c-24 -17 -62 -16 -98 2 -39 21 -63 19 -76 -6 l-11 -20 12 -15 c18 -21
57 -40 101 -48 l38 -7 38 10 c21 6 51 24 66 40 l28 29 5 44 4 43 -19 31 -20
31 -58 23 c-33 13 -67 30 -77 40 l-18 16 7 17 6 17 42 0 c22 0 50 -7 60 -15
28 -21 53 -19 66 6 l12 21 -19 20 c-25 29 -75 48 -125 48 l-43 0 -32 -20 c-38
-23 -46 -36 -77 -134 -13 -41 -36 -96 -50 -120 l-27 -46 -25 -6 -26 -7 -9 14
c-5 8 -9 63 -9 122 l0 108 -15 29 c-20 38 -63 60 -117 60 l-43 0 -30 -20 -29
-19 -19 19 c-19 21 -34 24 -61 14 l-16 -6 0 -85 c0 -102 -13 -149 -52 -197
l-29 -36 -29 0 -28 0 -6 16 c-3 9 -6 80 -6 159 l0 144 -20 6 c-11 3 -28 4 -39
0 l-18 -6 -5 -103 -5 -103 -27 -47 c-29 -50 -51 -66 -90 -66 l-26 0 -2 298 -3
297 -40 0 -40 0 -5 -245 -5 -245 -14 -25 c-7 -14 -25 -37 -39 -52 l-26 -28
-28 0 -28 0 0 288 0 288 -12 12 c-13 13 -60 16 -71 5z m-236 -372 l29 -29 0
-62 0 -61 -15 -28 c-16 -32 -33 -41 -76 -41 l-29 0 -19 19 c-57 57 -43 195 22
221 38 15 58 11 88 -19z" stroke="#000000" stroke-width="31"></path>
<path d="M1418 8755 l-12 -26 10 -27 9 -27 40 0 40 0 9 27 10 27 -12 26 -12
25 -35 0 -35 0 -12 -25z" stroke="#000000" stroke-width="31"></path>
<path d="M4122 8768 c-7 -7 -12 -26 -12 -43 0 -38 16 -55 50 -55 34 0 50 17
50 55 0 38 -16 55 -50 55 -14 0 -31 -5 -38 -12z" stroke="#000000" stroke-width="31"></path>
<path d="M831 7138 l-34 -9 -52 -52 -52 -53 -18 -54 c-11 -30 -19 -81 -19
-112 l-1 -57 21 -28 c11 -15 39 -34 60 -42 l40 -14 37 7 c37 7 117 60 125 84
l4 12 -21 0 c-11 0 -23 -5 -26 -10 -4 -6 -25 -20 -47 -31 l-41 -21 -33 7 -33
6 -21 26 -20 26 0 48 0 48 20 55 21 55 34 30 c19 17 52 35 74 42 l39 12 47
-23 46 -23 10 10 9 9 -15 22 c-15 20 -72 43 -105 41 -8 0 -30 -5 -49 -11z" stroke="#000000" stroke-width="31"></path>
<path d="M1503 7140 c-56 -13 -115 -66 -151 -135 l-26 -50 -1 -82 0 -83 31
-31 32 -31 46 -5 46 -6 54 27 54 26 36 53 35 52 16 61 16 62 -10 42 c-12 52
-43 87 -90 100 -40 11 -43 11 -88 0z m88 -45 c53 -28 64 -104 29 -199 l-21
-54 -39 -36 c-22 -20 -51 -38 -65 -42 -37 -9 -90 4 -111 27 l-19 21 0 67 1 66
26 50 c31 60 54 83 105 101 49 17 58 17 94 -1z" stroke="#000000" stroke-width="31"></path>
<path d="M2024 7136 c-17 -7 -41 -27 -53 -42 l-23 -29 5 -56 5 -56 -29 -17
c-35 -20 -69 -83 -69 -125 l0 -30 24 -28 24 -28 49 0 48 0 44 22 44 22 13 -17
c8 -9 14 -20 14 -24 0 -5 7 -8 15 -8 24 0 28 26 10 58 l-17 28 31 49 c17 27
31 60 31 73 l0 23 -17 -3 -16 -3 -14 -40 c-7 -22 -20 -46 -27 -53 l-14 -14
-29 44 c-16 23 -33 48 -36 54 l-7 12 48 31 c94 60 97 150 6 166 l-29 5 -31
-14z m70 -42 c19 -19 19 -17 4 -49 l-12 -27 -39 -20 -40 -20 -8 14 c-39 61 46
152 95 102z m-66 -226 l41 -62 -11 -13 c-16 -19 -83 -37 -112 -29 l-27 7 -8
22 c-13 35 -2 75 31 107 16 17 33 30 37 30 5 0 27 -28 49 -62z" stroke="#000000" stroke-width="31"></path>
<path d="M3793 7142 c-6 -4 -21 -46 -33 -94 l-22 -86 -33 5 c-74 12 -122 -25
-156 -119 -23 -63 -48 -88 -87 -88 l-24 0 4 23 c3 12 11 50 19 85 l13 63 -10
17 -11 17 -38 3 -38 3 -29 -21 -28 -21 0 21 0 21 -17 -3 -16 -3 -12 -50 c-21
-93 -70 -155 -121 -155 l-24 0 0 15 c0 9 10 54 21 101 22 86 21 101 -4 91
l-14 -5 -17 -69 c-23 -91 -60 -133 -117 -133 l-22 0 6 43 c3 23 11 68 18 99 7
32 10 60 6 64 -3 4 -22 -1 -41 -10 -42 -20 -83 -20 -116 -1 -14 8 -40 14 -59
15 l-34 0 -34 -21 c-18 -12 -42 -38 -53 -60 l-20 -38 0 -41 0 -41 25 -24 24
-25 29 0 c33 0 86 33 115 71 10 15 22 47 24 73 l6 46 26 0 c14 0 36 3 48 6
l21 6 -19 -77 -20 -77 16 -24 15 -24 29 0 c15 0 44 11 63 24 l35 23 9 -21 9
-21 38 1 38 1 31 29 31 29 -7 -27 -6 -27 11 -7 c17 -10 28 7 48 80 l19 68 28
29 28 29 27 0 c15 0 31 -5 34 -10 4 -6 -1 -45 -11 -86 l-18 -75 11 -17 11 -17
37 1 37 1 21 21 21 21 22 -24 23 -25 25 0 c13 0 38 11 54 25 l30 26 7 -21 c3
-11 17 -23 30 -26 l23 -6 47 21 46 21 29 -22 28 -21 45 7 45 7 43 31 42 30 -6
-30 -6 -31 10 -7 c17 -10 28 8 48 80 l19 68 27 28 28 29 36 3 36 3 0 15 0 15
-29 3 -29 4 -28 -21 -29 -22 0 21 0 21 -17 -3 -16 -3 -12 -51 c-14 -61 -37
-94 -90 -128 l-39 -26 -36 0 c-20 0 -41 5 -48 12 l-11 11 51 36 c29 20 61 51
71 69 l20 33 -11 25 -12 24 -31 0 c-65 0 -121 -61 -135 -148 l-7 -42 -39 -12
-39 -11 -8 9 -9 9 44 179 c42 169 45 205 17 188z m-970 -233 l10 -16 -7 -36
c-4 -20 -18 -50 -32 -67 l-26 -30 -27 0 c-15 0 -32 5 -39 12 -24 24 -9 102 26
141 l16 18 34 -3 35 -3 10 -16z m899 16 c3 -3 0 -26 -5 -52 l-11 -46 -32 -33
c-34 -36 -64 -43 -84 -19 l-12 14 7 41 c4 22 18 54 32 70 l25 30 37 0 c21 0
40 -2 43 -5z m248 -14 l0 -19 -42 -38 -43 -39 -3 23 c-2 12 6 38 18 57 l22 35
24 0 24 0 0 -19z" stroke="#000000" stroke-width="31"></path>
<path d="M1085 7118 c-3 -13 -25 -103 -49 -200 -24 -98 -41 -180 -38 -183 3
-3 54 -5 113 -5 l107 0 5 14 c9 23 -2 26 -95 26 l-89 0 5 18 c3 9 10 37 16 62
6 25 13 53 16 63 l5 17 79 0 78 0 5 14 6 14 -15 6 c-9 3 -45 6 -80 6 l-65 0 5
18 c3 9 10 38 17 64 l11 47 96 3 97 3 3 18 3 17 -115 0 -116 0 -5 -22z" stroke="#000000" stroke-width="31"></path>
<path d="M2494 7129 c-4 -6 -28 -99 -54 -206 l-47 -194 9 -5 c18 -11 33 17 53
99 l21 82 59 3 c80 3 105 10 105 27 l0 15 -76 0 -76 0 6 23 c3 12 11 45 17 74
l12 52 91 3 91 3 3 18 3 17 -105 0 -105 0 -7 -11z" stroke="#000000" stroke-width="31"></path>
<path d="M617 5673 c-4 -3 -7 -96 -7 -205 l0 -198 15 0 15 0 0 123 0 124 18
16 c23 21 66 22 86 1 l16 -15 0 -125 0 -124 15 0 15 0 0 134 0 135 -17 16 -17
17 -58 -5 -58 -5 0 59 c0 55 -7 69 -23 52z" stroke="#000000" stroke-width="31"></path>
<path d="M1946 5673 c-3 -3 -6 -96 -6 -205 l0 -198 79 0 80 0 8 13 c4 6 9 62
11 122 l4 110 -11 28 -11 27 -65 0 -65 0 0 49 c0 47 -9 68 -24 54z m134 -253
l0 -120 -55 0 -55 0 0 120 0 120 55 0 55 0 0 -120z" stroke="#000000" stroke-width="31"></path>
<path d="M3296 5673 c-3 -3 -6 -28 -6 -55 l0 -48 -65 0 -64 0 -11 -19 -10 -20
0 -111 0 -111 10 -20 11 -19 79 0 80 0 0 199 0 200 -9 5 c-4 3 -11 3 -15 -1z
m-6 -253 l0 -120 -54 0 -54 0 -6 16 c-3 9 -6 55 -6 104 0 49 3 95 6 104 l6 16
54 0 54 0 0 -120z" stroke="#000000" stroke-width="31"></path>
<path d="M1110 5470 l0 -200 15 0 15 0 0 200 0 200 -15 0 -15 0 0 -200z" stroke="#000000" stroke-width="31"></path>
<path d="M1210 5470 l0 -200 15 0 15 0 0 200 0 200 -15 0 -15 0 0 -200z" stroke="#000000" stroke-width="31"></path>
<path d="M2184 5639 c-3 -6 0 -15 7 -20 l14 -8 9 9 c9 9 0 30 -14 30 -5 0 -12
-5 -16 -11z" stroke="#000000" stroke-width="31"></path>
<path d="M3934 5639 c-3 -6 0 -15 7 -20 l14 -8 9 9 c9 9 0 30 -14 30 -5 0 -12
-5 -16 -11z" stroke="#000000" stroke-width="31"></path>
<path d="M1623 5595 l-32 -13 -18 -34 -18 -33 0 -95 0 -95 18 -32 c19 -36 54
-58 108 -68 l36 -7 41 12 c60 16 52 28 -12 17 l-53 -10 -39 19 -39 19 -14 29
c-7 16 -16 56 -18 90 l-5 61 11 42 c6 22 20 51 30 64 l18 23 60 4 60 4 22 -12
c12 -6 31 -26 41 -43 l20 -32 0 -67 c0 -75 -12 -115 -36 -125 l-16 -6 -9 14
c-5 8 -9 53 -9 101 l0 87 -19 11 c-43 23 -91 6 -91 -32 0 -24 16 -23 23 2 l5
20 25 0 25 0 6 -16 c3 -9 6 -22 6 -30 l0 -14 -40 0 -39 0 -11 -19 c-15 -30
-12 -77 7 -96 l17 -17 38 5 38 5 0 -13 c0 -20 34 -27 63 -14 l26 12 11 30 c5
16 10 62 10 101 l0 71 -20 33 -20 33 -35 15 c-43 18 -130 18 -172 -1z m127
-197 c0 -18 -4 -39 -9 -46 l-8 -14 -24 4 -24 3 -3 43 -3 42 35 0 36 0 0 -32z" stroke="#000000" stroke-width="31"></path>
<path d="M3050 5572 c-14 -2 -31 -9 -37 -14 l-13 -10 0 11 c0 6 -7 11 -15 11
l-15 0 0 -150 0 -150 15 0 15 0 0 118 0 118 14 19 14 19 36 0 36 0 0 12 c0 15
-18 21 -50 16z" stroke="#000000" stroke-width="31"></path>
<path d="M877 5552 l-17 -19 0 -111 0 -112 20 -20 20 -20 49 0 50 0 20 26 c12
15 21 40 21 55 l0 29 -13 0 -13 0 -10 -37 -9 -36 -28 -10 -28 -9 -24 16 -25
16 0 50 0 50 75 0 75 0 0 55 0 55 -20 20 -20 20 -53 0 -54 0 -16 -18z m117
-24 c9 -12 16 -37 16 -55 l0 -33 -60 0 -60 0 0 39 0 40 16 15 c8 9 28 16 44
16 l29 0 15 -22z" stroke="#000000" stroke-width="31"></path>
<path d="M1334 5556 l-19 -14 0 -115 0 -115 19 -21 19 -21 46 0 47 0 22 16 22
15 0 118 0 118 -18 16 -19 17 -49 0 -50 0 -20 -14z m109 -19 l18 -12 -3 -105
-3 -105 -29 -13 -28 -14 -24 11 -24 11 0 109 0 110 18 10 c24 14 55 13 75 -2z" stroke="#000000" stroke-width="31"></path>
<path d="M2190 5420 l0 -150 15 0 15 0 0 150 0 150 -15 0 -15 0 0 -150z" stroke="#000000" stroke-width="31"></path>
<path d="M2277 5564 c-15 -15 7 -24 58 -24 l54 0 -60 -131 c-32 -73 -59 -134
-59 -136 0 -2 35 -3 78 -1 l77 3 0 10 0 10 -52 3 c-29 2 -53 7 -53 12 0 4 25
64 55 131 30 67 55 124 55 126 0 6 -147 3 -153 -3z" stroke="#000000" stroke-width="31"></path>
<path d="M2494 5556 l-19 -14 0 -115 0 -115 19 -21 19 -21 46 0 47 0 22 16 22
15 0 45 0 46 -12 -4 c-7 -3 -15 -20 -18 -39 l-5 -34 -29 -13 -28 -14 -24 11
-24 11 0 110 0 110 25 12 26 12 27 -10 27 -9 3 -38 3 -37 15 0 14 0 0 38 0 39
-18 16 -19 17 -49 0 -50 0 -20 -14z" stroke="#000000" stroke-width="31"></path>
<path d="M2732 5558 l-12 -12 0 -132 0 -132 16 -6 c9 -3 36 -6 61 -6 l45 0 -4
13 c-3 6 -22 14 -44 17 l-39 5 -3 118 -3 117 56 0 55 0 0 -135 0 -135 20 0 20
0 0 150 0 150 -78 0 -78 0 -12 -12z" stroke="#000000" stroke-width="31"></path>
<path d="M3380 5555 l0 -14 54 -3 54 -3 -58 -130 -58 -130 66 -3 c36 -2 71 -1
79 2 28 11 1 26 -48 26 -27 0 -49 2 -49 4 0 3 25 61 55 131 30 69 55 128 55
130 0 3 -34 5 -75 5 l-75 0 0 -15z" stroke="#000000" stroke-width="31"></path>
<path d="M3690 5551 l-10 -20 0 -111 0 -111 10 -20 11 -19 55 0 56 0 -4 13 -5
12 -39 3 c-21 2 -42 9 -46 15 -9 14 -11 189 -2 211 l6 16 54 0 54 0 0 -135 0
-135 15 0 15 0 0 150 0 150 -80 0 -79 0 -11 -19z" stroke="#000000" stroke-width="31"></path>
<path d="M3940 5420 l0 -150 15 0 15 0 0 150 0 150 -15 0 -15 0 0 -150z" stroke="#000000" stroke-width="31"></path>
<path d="M3580 5284 c0 -9 5 -14 12 -12 18 6 21 28 4 28 -9 0 -16 -7 -16 -16z" stroke="#000000" stroke-width="31"></path>
</g>
</svg>