<svg version="1.0" xmlns="http://www.w3.org/2000/svg" width="1024.000000pt" height="576.000000pt" viewBox="0 0 1024.000000 576.000000" preserveAspectRatio="xMidYMid meet">
<rect width="100%" height="100%" fill="#fff" />
<metadata>
Created by potrace 1.16, written by Peter Selinger 2001-2019
</metadata>
<g transform="translate(0.000000,576.000000) scale(0.100000,-0.100000)" fill="#000000" stroke="none">
<path d="M713 5138 c-9 -12 -99 -445 -105 -508 l-3 -25 22 -3 22 -3 10 38 c5
21 24 115 42 208 17 94 34 176 38 182 l7 13 74 -212 75 -211 18 -11 18 -11 12
16 c7 9 44 106 81 215 38 110 72 203 76 207 4 4 24 -81 45 -190 21 -109 42
-208 46 -220 l9 -23 20 0 20 0 0 18 c0 10 -22 130 -50 267 l-50 249 -12 8
c-36 22 -51 -6 -128 -230 -40 -117 -76 -209 -80 -205 -4 4 -39 102 -79 218
-40 115 -77 213 -84 217 -18 11 -33 10 -44 -4z" stroke="#000000" stroke-width="75"></path>
<path d="M1527 5144 c-4 -4 -7 -91 -7 -193 l0 -185 -21 -43 c-25 -52 -57 -76
-96 -71 l-28 3 -3 133 -3 132 -24 0 -25 0 0 -140 0 -140 20 -20 20 -20 30 0
c39 0 82 22 108 55 l21 26 3 -38 3 -38 23 -3 22 -3 0 65 c0 36 2 66 6 66 3 0
33 -29 67 -65 l62 -65 36 0 c20 0 56 10 80 23 l45 22 33 -22 34 -23 39 0 c76
0 166 76 113 96 l-15 6 -31 -26 -31 -26 -33 0 -33 0 -12 15 c-7 9 -11 17 -9
18 2 2 25 20 52 41 53 42 77 81 77 126 l0 30 -20 20 -20 20 -45 0 -44 0 -35
-35 -35 -35 -7 -35 c-3 -20 -4 -58 -2 -84 l5 -49 -28 -16 c-15 -9 -43 -16 -63
-16 l-35 0 -51 61 c-27 33 -50 63 -50 67 0 4 32 30 70 57 69 50 83 71 55 81
l-15 6 -70 -51 c-38 -28 -74 -51 -80 -51 l-10 0 -2 162 -3 163 -15 3 c-9 1
-19 0 -23 -4z m471 -301 l3 -22 -47 -51 c-25 -27 -51 -47 -56 -44 l-10 7 6 43
c3 24 13 56 22 70 l17 25 31 -3 31 -3 3 -22z" stroke="#000000" stroke-width="75"></path>
<path d="M2555 5146 c-5 -3 -22 -7 -38 -10 -37 -9 -104 -70 -129 -120 l-21
-41 -5 -81 -4 -82 16 -49 c20 -61 66 -118 117 -143 l38 -20 46 0 c25 0 62 7
83 16 46 19 102 72 102 96 l0 18 -18 0 c-10 0 -29 -12 -43 -26 -83 -89 -207
-65 -260 51 l-19 40 0 69 c0 87 16 140 55 181 l30 33 43 11 42 12 42 -12 c24
-6 54 -19 68 -29 l26 -19 14 9 13 8 -6 15 c-3 8 -21 26 -39 40 l-33 25 -55 6
c-30 3 -59 4 -65 2z" stroke="#000000" stroke-width="75"></path>
<path d="M3227 5144 c-4 -4 -7 -54 -7 -110 l0 -103 -29 -20 -29 -21 -40 0
c-22 0 -59 7 -82 15 -23 8 -62 15 -86 15 l-43 0 -36 -31 -35 -31 -11 -41 -11
-42 6 -43 c15 -107 113 -162 205 -114 l35 17 19 38 19 38 1 47 c0 26 -3 56 -6
67 l-7 20 36 3 c19 1 48 9 65 17 l29 16 0 -121 0 -120 20 -20 20 -20 30 0 c40
0 83 22 109 57 l20 28 1 -22 c0 -13 9 -32 20 -43 l20 -20 31 0 c36 0 64 13
102 48 l27 26 0 -17 c0 -9 9 -26 20 -37 l20 -20 31 0 c36 0 64 13 102 48 l27
26 0 -38 0 -37 23 3 22 3 3 80 c3 102 6 117 38 154 l26 31 39 0 38 0 11 -19
c5 -11 10 -63 10 -115 l0 -96 20 -20 20 -20 37 0 36 0 37 39 c21 22 46 60 55
85 10 25 21 46 24 46 22 0 126 -48 135 -63 l11 -17 -11 -17 c-6 -9 -18 -21
-27 -27 l-16 -10 -43 12 c-63 19 -72 19 -76 1 l-3 -16 37 -18 37 -17 50 5 51
4 23 27 23 27 0 35 0 35 -24 22 c-13 12 -47 30 -74 40 l-51 17 -6 21 -7 20 12
14 c16 20 70 19 99 -1 l23 -16 15 14 15 15 -28 22 -27 21 -43 0 c-24 0 -54 -5
-68 -11 -24 -11 -56 -63 -56 -91 0 -23 -56 -132 -78 -151 l-20 -19 -24 4 -23
3 -5 107 -5 106 -24 26 -24 26 -48 0 -47 0 -30 -29 -31 -28 -3 26 -3 26 -21 3
-21 3 -5 -83 -5 -83 -21 -42 c-25 -48 -51 -66 -90 -61 l-27 3 -5 130 -5 130
-21 3 -21 3 -5 -83 -5 -83 -21 -42 c-25 -48 -51 -66 -90 -61 l-27 3 -5 245 -5
245 -20 0 -20 0 -5 -195 -5 -195 -28 -47 -28 -48 -24 -6 c-13 -3 -32 -4 -42
-2 l-18 3 -5 245 -5 245 -15 3 c-9 1 -19 0 -23 -4z m-207 -294 c25 -25 34 -61
27 -112 l-5 -40 -23 -24 -22 -24 -34 0 -34 0 -24 25 -25 24 0 59 0 59 21 27
20 26 40 0 39 0 20 -20z" stroke="#000000" stroke-width="75"></path>
<path d="M1317 5083 c-4 -3 -7 -17 -7 -29 l0 -23 18 -10 18 -9 17 9 c20 12 22
40 5 57 -13 13 -41 16 -51 5z" stroke="#000000" stroke-width="75"></path>
<path d="M3614 5076 c-3 -8 -4 -23 -2 -33 l3 -18 26 -3 26 -3 7 16 c3 9 1 25
-4 36 -12 22 -48 25 -56 5z" stroke="#000000" stroke-width="75"></path>
<path d="M735 3856 c-17 -7 -45 -29 -62 -49 l-31 -36 -13 -55 -12 -56 12 -56
13 -56 35 -39 35 -39 38 -11 38 -12 36 7 36 7 35 31 c57 50 41 82 -17 33 -16
-14 -41 -28 -56 -32 l-26 -6 -40 14 -41 14 -22 45 -23 44 0 59 0 58 14 27 c8
15 25 38 39 51 l26 23 46 6 46 5 31 -23 30 -22 11 11 10 10 -14 17 c-34 41
-117 55 -174 30z" stroke="#000000" stroke-width="75"></path>
<path d="M1405 3856 c-39 -17 -70 -52 -90 -98 l-15 -37 0 -63 0 -63 19 -40
c23 -50 55 -79 105 -95 l38 -12 41 6 c54 9 105 48 128 100 l19 41 0 63 0 63
-16 37 c-39 94 -140 137 -229 98z m155 -61 l29 -27 11 -50 12 -49 -6 -42 c-9
-57 -39 -104 -80 -123 l-34 -17 -36 7 c-19 4 -49 18 -66 32 l-30 25 -11 42
-11 42 5 53 c7 62 25 95 70 123 l32 20 43 -4 44 -5 28 -27z" stroke="#000000" stroke-width="75"></path>
<path d="M1951 3857 c-27 -16 -50 -53 -51 -82 0 -11 8 -35 18 -54 l18 -33 -33
-33 -33 -33 0 -41 c0 -23 7 -56 16 -72 l15 -31 36 -15 37 -15 40 6 c23 4 55
15 71 26 l30 19 26 -25 27 -26 11 6 c18 11 13 31 -14 56 l-24 23 15 29 c9 16
16 48 17 71 l2 42 -14 0 -15 0 -12 -48 c-7 -27 -15 -52 -19 -55 -4 -4 -29 18
-57 48 l-49 55 23 15 c13 8 33 25 46 37 l22 22 0 30 0 30 -23 26 -22 26 -40 5
-40 4 -24 -13z m93 -43 c23 -23 20 -42 -13 -75 -33 -32 -52 -36 -70 -15 -16
20 -17 72 -1 91 16 20 64 19 84 -1z m36 -281 c0 -7 -15 -21 -34 -29 l-34 -17
-36 7 -35 7 -16 22 c-26 37 -15 95 24 124 l16 12 58 -57 c31 -31 57 -62 57
-69z" stroke="#000000" stroke-width="75"></path>
<path d="M3740 3780 l0 -91 -35 7 -35 6 -31 -12 c-36 -16 -58 -55 -66 -120
l-6 -49 -18 -16 -17 -17 -24 4 -23 3 -3 82 -3 82 -26 21 c-14 11 -34 20 -45
20 -25 0 -61 -19 -72 -39 l-10 -16 -6 25 c-3 14 -12 25 -20 25 l-15 0 -6 -70
c-7 -97 -32 -135 -88 -135 l-20 0 -3 103 -3 102 -20 0 -20 0 -5 -81 -5 -82
-19 -21 -20 -22 -30 3 -31 3 -3 98 -3 98 -15 6 c-8 3 -23 -2 -33 -11 l-18 -16
-40 0 c-22 0 -57 7 -76 15 -52 21 -81 19 -116 -11 l-31 -25 -10 -38 -10 -37
10 -36 11 -37 30 -25 c17 -14 42 -26 55 -26 38 0 82 27 100 62 l16 31 -4 46
-5 46 21 0 c12 1 33 4 49 8 l27 7 0 -80 0 -80 20 -20 20 -20 29 0 29 0 31 26
c17 14 31 21 31 16 0 -18 31 -42 54 -42 13 0 39 11 59 24 l36 25 3 -22 3 -22
15 0 15 0 5 77 6 77 24 26 23 25 28 0 27 0 6 -16 c3 -9 6 -47 6 -85 l0 -69 20
-20 c27 -27 62 -25 99 6 17 14 31 21 31 15 0 -6 16 -19 36 -28 l36 -18 39 22
40 22 20 -20 c24 -24 45 -24 93 0 l37 20 35 -21 35 -21 41 6 40 5 38 31 39 31
3 -32 3 -33 18 -3 17 -3 0 69 0 69 23 34 23 34 37 3 37 3 0 14 c0 8 -12 18
-26 21 l-26 7 -28 -22 c-36 -26 -40 -26 -40 0 l0 20 -17 -3 -18 -3 -5 -69 -5
-68 -39 -34 -39 -34 -34 0 c-19 0 -42 4 -52 10 l-19 9 49 49 49 49 0 30 0 30
-18 16 c-10 10 -31 17 -45 17 l-27 0 -32 -29 -33 -29 -2 -63 -1 -63 -19 -13
c-10 -8 -29 -13 -43 -11 l-25 3 -3 188 -2 187 -20 0 -20 0 0 -90z m-934 -128
c37 -24 44 -96 13 -136 l-20 -26 -25 0 c-13 0 -33 9 -44 20 l-20 20 0 45 0 45
20 20 c20 20 56 26 76 12z m918 2 l16 -6 0 -45 c0 -88 -59 -143 -104 -97 l-16
15 0 47 0 48 16 22 15 22 29 0 c15 0 35 -3 44 -6z m266 -17 l0 -23 -31 -32
c-38 -39 -49 -40 -49 -6 0 46 28 84 63 84 l17 0 0 -23z" stroke="#000000" stroke-width="75"></path>
<path d="M1010 3660 l0 -200 116 0 115 0 -3 18 -3 17 -93 3 -92 3 0 74 0 75
64 0 c73 0 96 6 96 26 l0 14 -80 0 -80 0 0 65 0 65 79 0 c88 0 111 5 111 26
l0 14 -115 0 -115 0 0 -200z" stroke="#000000" stroke-width="75"></path>
<path d="M2432 3658 l3 -203 15 0 15 0 3 92 3 92 77 3 77 3 3 18 3 17 -80 0
-81 0 0 70 0 70 79 0 c88 0 111 5 111 26 l0 14 -115 0 -115 0 2 -202z" stroke="#000000" stroke-width="75"></path>
<path d="M627 2694 c-4 -4 -7 -94 -7 -201 l0 -193 20 0 19 0 3 133 3 132 38 3
38 3 15 -12 14 -11 0 -124 0 -124 15 0 15 0 0 133 0 134 -18 16 -19 17 -34 0
c-19 0 -41 -5 -49 -10 l-15 -9 -5 56 c-5 52 -17 73 -33 57z" stroke="#000000" stroke-width="75"></path>
<path d="M1127 2694 c-4 -4 -7 -94 -7 -201 l0 -193 20 0 20 0 -2 197 -3 196
-11 4 c-5 2 -13 0 -17 -3z" stroke="#000000" stroke-width="75"></path>
<path d="M1237 2694 c-4 -4 -7 -94 -7 -201 l0 -193 20 0 20 0 -2 197 -3 196
-11 4 c-5 2 -13 0 -17 -3z" stroke="#000000" stroke-width="75"></path>
<path d="M1970 2500 l0 -200 78 0 78 0 12 12 12 12 0 121 c0 66 -4 127 -9 134
l-10 15 -65 4 -66 4 0 49 0 49 -15 0 -15 0 0 -200z m144 54 c8 -20 8 -188 0
-208 l-6 -16 -54 0 -54 0 0 120 0 120 54 0 54 0 6 -16z" stroke="#000000" stroke-width="75"></path>
<path d="M3340 2650 l0 -50 -55 0 -55 0 -20 -20 -20 -20 0 -111 0 -110 10 -20
11 -19 79 0 80 0 0 200 0 200 -15 0 -15 0 0 -50z m0 -200 l0 -120 -55 0 -55 0
0 120 0 120 55 0 55 0 0 -120z" stroke="#000000" stroke-width="75"></path>
<path d="M2220 2655 l0 -15 20 0 20 0 0 15 0 15 -20 0 -20 0 0 -15z" stroke="#000000" stroke-width="75"></path>
<path d="M3997 2664 c-9 -10 2 -24 19 -24 8 0 14 7 14 15 0 15 -21 21 -33 9z" stroke="#000000" stroke-width="75"></path>
<path d="M1679 2631 c-47 -15 -66 -30 -83 -65 l-16 -34 0 -80 c0 -87 10 -125
42 -159 l21 -22 51 -12 51 -11 43 11 c23 7 42 16 42 22 l0 9 -27 -7 c-16 -5
-49 -8 -76 -7 l-47 1 -21 19 c-33 29 -49 77 -49 142 0 82 9 118 35 146 l22 24
50 7 50 6 36 -14 36 -15 16 -33 17 -32 -4 -78 -3 -78 -17 -17 -16 -17 -16 6
-16 6 0 89 0 88 -12 12 c-7 7 -29 12 -50 12 l-37 0 -11 -19 c-14 -27 -13 -41
4 -41 l15 0 3 23 3 22 25 0 25 0 3 -32 3 -33 -39 0 -40 0 -6 -16 c-3 -9 -6
-31 -6 -49 l0 -34 21 -12 22 -11 33 5 34 6 0 -14 c0 -20 34 -27 63 -14 35 16
50 57 49 139 l0 69 -17 29 c-10 16 -30 37 -45 45 -32 20 -125 30 -161 18z m91
-216 l0 -45 -29 0 -30 0 -6 21 c-4 11 -4 31 -1 45 l6 24 30 0 30 0 0 -45z" stroke="#000000" stroke-width="75"></path>
<path d="M894 2575 l-26 -26 4 -110 3 -111 19 -14 20 -14 46 0 46 0 22 16 22
15 0 40 0 39 -15 0 -15 0 0 -30 0 -30 -25 -16 -25 -16 -25 6 -26 7 -9 25 c-6
14 -10 38 -10 54 l0 29 73 3 72 3 3 62 3 61 -23 16 -22 16 -44 0 -43 0 -25
-25z m104 -11 l22 -15 0 -40 0 -39 -61 0 -62 0 6 42 6 42 17 13 c24 17 45 16
72 -3z" stroke="#000000" stroke-width="75"></path>
<path d="M1360 2582 l-23 -19 -5 -81 c-5 -93 2 -145 24 -167 l15 -15 49 0 48
0 23 19 24 19 3 106 4 105 -26 26 -25 25 -44 0 -45 0 -22 -18z m103 -15 l18
-12 -3 -110 -3 -110 -27 -9 -27 -10 -26 12 -25 12 0 110 0 111 23 9 c31 13 51
12 70 -3z" stroke="#000000" stroke-width="75"></path>
<path d="M2227 2594 c-4 -4 -7 -72 -7 -151 l0 -143 20 0 21 0 -3 147 -3 146
-11 4 c-5 2 -13 0 -17 -3z" stroke="#000000" stroke-width="75"></path>
<path d="M2310 2585 l0 -15 56 0 55 0 -6 -21 c-4 -12 -29 -69 -56 -126 -27
-58 -49 -109 -49 -114 l0 -9 75 0 75 0 0 15 0 14 -55 3 -54 3 54 118 c30 66
55 125 55 133 l0 14 -75 0 -75 0 0 -15z" stroke="#000000" stroke-width="75"></path>
<path d="M2540 2582 l-23 -19 -5 -81 c-5 -93 2 -145 24 -167 l15 -15 47 0 48
0 21 15 22 16 7 34 c7 39 0 57 -21 49 l-14 -6 -3 -36 -3 -37 -27 -9 -27 -10
-26 12 -25 12 0 110 0 110 28 11 27 11 25 -9 25 -8 3 -38 3 -37 20 0 19 0 0
30 0 31 -25 24 -24 25 -44 0 -45 0 -22 -18z" stroke="#000000" stroke-width="75"></path>
<path d="M2790 2593 c-27 -10 -30 -26 -30 -148 l0 -121 12 -12 12 -12 54 0 54
0 -4 13 -5 12 -44 5 -44 5 0 115 0 115 58 3 57 3 0 -136 0 -135 15 0 15 0 0
150 0 150 -67 -1 c-38 0 -75 -3 -83 -6z" stroke="#000000" stroke-width="75"></path>
<path d="M3020 2450 l0 -150 15 0 15 0 0 118 0 119 18 16 c10 10 33 17 50 17
l32 0 0 15 0 15 -31 0 c-17 0 -39 -5 -49 -10 l-19 -10 -6 10 c-3 5 -10 10 -16
10 l-9 0 0 -150z" stroke="#000000" stroke-width="75"></path>
<path d="M3430 2585 l0 -15 56 0 55 0 -6 -21 c-4 -12 -29 -69 -56 -126 -27
-58 -49 -109 -49 -114 l0 -9 75 0 75 0 0 15 0 14 -55 3 -54 3 54 118 c30 66
55 125 55 133 l0 14 -75 0 -75 0 0 -15z" stroke="#000000" stroke-width="75"></path>
<path d="M3770 2593 c-27 -10 -30 -26 -30 -148 l0 -121 12 -12 12 -12 54 0 54
0 -4 13 -5 12 -44 5 -44 5 0 115 0 115 58 3 57 3 0 -136 0 -135 15 0 15 0 0
150 0 150 -67 -1 c-38 0 -75 -3 -83 -6z" stroke="#000000" stroke-width="75"></path>
<path d="M4000 2450 l0 -150 15 0 15 0 0 150 0 150 -15 0 -15 0 0 -150z" stroke="#000000" stroke-width="75"></path>
<path d="M3632 2318 c6 -18 28 -21 28 -4 0 9 -7 16 -16 16 -9 0 -14 -5 -12
-12z" stroke="#000000" stroke-width="75"></path>
</g>
</svg>